#N canvas 1064 52 472 459 10;
#X msg 61 39 0 3 6;
#X msg 61 59 0 3 7;
#X msg 61 79 0 4 7;
#X msg 61 99 0 4 8;
#X msg 61 119 0 5 7;
#X text 102 119 (sus2 is an inversion of sus4);
#X text 32 58 min;
#X text 32 38 dim;
#X text 32 78 maj;
#X text 32 98 aug;
#X text 26 118 sus4;
#X text 19 8 === TRIADS ===;
#X text 49 179 === CUATRIADS ===;
#X text 62 248 m7;
#X text 68 288 7;
#X text 49 268 m(M7);
#X msg 91 289 0 4 7 10;
#X msg 91 249 0 3 7 10;
#X msg 91 269 0 3 7 11;
#X text 48 208 dim7;
#X text 48 228 m7b5;
#X msg 91 229 0 3 6 10;
#X msg 91 209 0 3 6 9;
#X msg 91 329 0 5 7 10;
#X text 43 328 7sus4;
#X text 43 308 7aug5;
#X msg 91 309 0 5 8 10;
#X text 49 348 add9;
#X msg 91 349 0 4 7 14;
#X text 39 368 m(add9);
#X msg 91 369 0 3 7 14;
