#N canvas 490 23 829 715 10;
#X obj 52 267 list-wrandom;
#X obj 130 937 noteout;
#X obj 79 757 mod 12;
#X obj 272 697 div 12;
#X obj 249 934 noteout;
#X obj 431 930 noteout;
#X obj 79 837 makenote 1000 1000;
#X obj 207 838 makenote 1000 1000;
#X obj 345 834 makenote 1000 1000;
#X obj 79 680 t f f;
#X obj 79 811 +;
#N canvas 742 23 450 300 inverse_type 0;
#X obj 87 42 inlet;
#X obj 89 74 sel 0 1 2 3 4 5;
#X msg 25 149 0 \, 4 \, 7;
#X msg 142 149 0 \, 4 \, 8;
#X msg 202 149 0 \, 3 \, 6;
#X msg 263 149 0 \, 5 \, 7;
#X msg 83 149 0 \, 3 \, 7;
#X obj 147 220 outlet;
#X msg 322 149 0 \, 4 \, 10;
#X connect 0 0 1 0;
#X connect 1 0 2 0;
#X connect 1 1 6 0;
#X connect 1 2 3 0;
#X connect 1 3 4 0;
#X connect 1 4 5 0;
#X connect 1 5 8 0;
#X connect 2 0 7 0;
#X connect 3 0 7 0;
#X connect 4 0 7 0;
#X connect 5 0 7 0;
#X connect 6 0 7 0;
#X connect 8 0 7 0;
#X restore 272 718 pd inverse_type;
#X obj 272 739 sel 0 1 2 3 4 5 6 7 8 9 10 11;
#X msg 251 768 0;
#X msg 283 768 3;
#X msg 313 768 4;
#X msg 343 768 5;
#X msg 382 768 6;
#X msg 411 768 7;
#X msg 442 768 8;
#X obj 207 802 +;
#X obj 345 806 +;
#X obj 558 798 sel 0 1 2 3 4 5 6 7 8 9 10;
#X msg 477 846 0;
#X msg 507 846 12;
#X msg 537 846 24;
#X msg 566 846 36;
#X msg 595 846 48;
#X msg 624 846 60;
#X msg 655 846 72;
#X msg 685 846 84;
#X msg 715 846 96;
#X msg 744 846 108;
#X msg 773 846 120;
#X obj 89 863 +;
#X obj 217 865 +;
#X obj 355 863 +;
#X obj 558 628 vradio 15 1 0 11 empty empty empty 0 -8 0 10 -262144
-1 -1 0;
#X text 573 626 +0;
#X text 573 641 +12;
#X text 573 667 +24;
#X text 573 652 +36;
#X text 573 686 +48;
#X text 573 701 +60;
#X text 573 716 +72;
#X text 573 731 +84;
#X text 573 746 +96;
#X text 573 760 +108;
#X text 573 776 +120;
#X text 556 608 OCTAVES:;
#X msg 472 768 10;
#X obj 522 36 s key;
#X obj 712 35 s mode;
#X obj 522 15 hradio 15 1 0 12 empty empty empty 0 -8 0 10 -262144
-1 -1 0;
#X obj 712 14 hradio 15 1 0 2 empty empty empty 0 -8 0 10 -262144 -1
-1 0;
#X obj 121 875 r key;
#X obj 257 882 r key;
#X obj 370 884 r key;
#X obj 283 2 r mode;
#X msg 261 218 set major_orden1-\$1 \, bang;
#X obj 97 899 + 0;
#X obj 233 906 + 0;
#X obj 355 906 + 0;
#X obj 239 153 list prepend 0;
#X obj 261 176 route 0 1;
#X obj 261 243 tabdump major_orden1-0;
#X obj 283 23 t f f;
#X obj 29 159 sel 0 1;
#X msg 29 181 0;
#X msg 59 181 12;
#X msg 113 151 stop;
#X obj 52 320 s next_table;
#X obj 212 79 r next_table;
#X obj 14 206 f 0;
#X msg 286 198 set minor_orden1-\$1 \, bang;
#X obj 311 319 PRINT;
#X obj 212 102 t b f;
#X obj 113 192 delay 1000;
#X obj 170 170 r tempo;
#X obj 526 68 tgl 15 0 empty empty empty 17 7 0 10 -262144 -1 -1 0
1;
#X obj 526 188 s start;
#X obj 545 108 s stop;
#X floatatom 604 60 5 0 0 0 bpm - -;
#X obj 604 129 s tempo;
#X obj 604 108 /;
#X msg 604 84 240000 \$1;
#X obj 113 130 r stop;
#X obj 14 117 r start;
#X floatatom 158 294 5 0 0 0 - - -;
#X obj 578 188 ctlout 123;
#X msg 578 164 123;
#X obj 526 88 sel 1 0;
#X obj 615 914 pgmout;
#X floatatom 663 938 5 0 0 0 - - -;
#X obj 52 295 t f f;
#X obj 99 556 PRINT;
#X obj 99 530 list;
#X obj 169 503 pack \$1 \$2 \$3 \$4;
#X obj 169 528 PRINT;
#X obj 309 457 tabread song;
#X obj 309 479 + 1;
#X obj 309 501 tabwrite song;
#X msg 402 458 set song \, bang;
#X obj 402 481 tabdump song;
#X obj 402 502 PRINT;
#N canvas 0 22 450 278 (subpatch) 0;
#X array song 100 float 1;
#A 0 0 0 0 0 0 0 0 0 0 0 0 0 0 0 0 0 0 0 0 0 0 0 0 0 0 0 0 0 0 0 0
0 0 0 0 0 0 0 0 0 0 0 0 0 0 0 0 0 0 0 0 0 0 0 0 0 0 0 0 0 0 0 0 0 0
0 0 0 0 0 0 0 0 0 0 0 0 0 0 0 0 0 0 0 0 0 0 0 0 0 0 0 0 0 0 0 0 0 0
0;
#X coords 0 1 99 0 200 140 1 0 0;
#X restore 520 362 graph;
#X msg 403 418 \; song const 0;
#X connect 0 0 88 0;
#X connect 0 0 94 0;
#X connect 2 0 10 0;
#X connect 2 0 20 0;
#X connect 2 0 21 0;
#X connect 3 0 11 0;
#X connect 6 0 34 0;
#X connect 6 1 1 1;
#X connect 7 0 35 0;
#X connect 7 1 4 1;
#X connect 8 0 36 0;
#X connect 8 1 5 1;
#X connect 9 0 2 0;
#X connect 9 1 3 0;
#X connect 10 0 6 0;
#X connect 11 0 12 0;
#X connect 12 0 13 0;
#X connect 12 3 14 0;
#X connect 12 4 15 0;
#X connect 12 5 16 0;
#X connect 12 6 17 0;
#X connect 12 7 18 0;
#X connect 12 8 19 0;
#X connect 12 10 50 0;
#X connect 13 0 10 1;
#X connect 14 0 20 1;
#X connect 15 0 20 1;
#X connect 16 0 20 1;
#X connect 17 0 21 1;
#X connect 18 0 21 1;
#X connect 19 0 21 1;
#X connect 20 0 7 0;
#X connect 21 0 8 0;
#X connect 22 0 23 0;
#X connect 22 1 24 0;
#X connect 22 2 25 0;
#X connect 22 3 26 0;
#X connect 22 4 27 0;
#X connect 22 5 28 0;
#X connect 22 6 29 0;
#X connect 22 7 30 0;
#X connect 22 8 31 0;
#X connect 22 9 32 0;
#X connect 22 10 33 0;
#X connect 23 0 34 1;
#X connect 23 0 35 1;
#X connect 23 0 36 1;
#X connect 24 0 34 1;
#X connect 24 0 35 1;
#X connect 24 0 36 1;
#X connect 25 0 34 1;
#X connect 25 0 35 1;
#X connect 25 0 36 1;
#X connect 26 0 34 1;
#X connect 26 0 35 1;
#X connect 26 0 36 1;
#X connect 27 0 34 1;
#X connect 27 0 35 1;
#X connect 27 0 36 1;
#X connect 28 0 34 1;
#X connect 28 0 35 1;
#X connect 28 0 36 1;
#X connect 29 0 34 1;
#X connect 29 0 35 1;
#X connect 29 0 36 1;
#X connect 30 0 34 1;
#X connect 30 0 35 1;
#X connect 30 0 36 1;
#X connect 31 0 34 1;
#X connect 31 0 35 1;
#X connect 31 0 36 1;
#X connect 32 0 34 1;
#X connect 32 0 35 1;
#X connect 32 0 36 1;
#X connect 33 0 34 1;
#X connect 33 0 35 1;
#X connect 33 0 36 1;
#X connect 34 0 60 0;
#X connect 35 0 61 0;
#X connect 36 0 62 0;
#X connect 37 0 22 0;
#X connect 50 0 21 1;
#X connect 53 0 51 0;
#X connect 54 0 52 0;
#X connect 55 0 60 1;
#X connect 56 0 61 1;
#X connect 57 0 62 1;
#X connect 58 0 66 0;
#X connect 59 0 65 0;
#X connect 60 0 1 0;
#X connect 61 0 4 0;
#X connect 62 0 5 0;
#X connect 63 0 64 0;
#X connect 64 0 59 0;
#X connect 64 1 74 0;
#X connect 65 0 0 1;
#X connect 65 0 75 0;
#X connect 66 0 67 0;
#X connect 66 1 63 1;
#X connect 67 0 68 0;
#X connect 67 1 69 0;
#X connect 68 0 73 1;
#X connect 69 0 73 1;
#X connect 70 0 77 0;
#X connect 72 0 76 0;
#X connect 73 0 94 0;
#X connect 74 0 65 0;
#X connect 76 0 77 0;
#X connect 76 1 63 0;
#X connect 77 0 0 0;
#X connect 78 0 77 1;
#X connect 79 0 91 0;
#X connect 82 0 85 0;
#X connect 84 0 83 0;
#X connect 85 0 84 0;
#X connect 86 0 70 0;
#X connect 87 0 73 0;
#X connect 90 0 89 0;
#X connect 91 0 80 0;
#X connect 91 1 81 0;
#X connect 91 1 90 0;
#X connect 93 0 92 0;
#X connect 94 0 71 0;
#X connect 94 1 9 0;
#X connect 94 1 96 0;
#X connect 94 1 97 0;
#X connect 94 1 97 1;
#X connect 94 1 99 0;
#X connect 94 1 101 1;
#X connect 96 0 95 0;
#X connect 97 0 98 0;
#X connect 99 0 100 0;
#X connect 100 0 101 0;
#X connect 102 0 103 0;
#X connect 103 0 104 0;
