#N canvas 231 23 1280 717 12;
#X obj 52 267 list-wrandom;
#X obj 130 1527 noteout;
#X obj 79 1347 mod 12;
#X obj 272 1287 div 12;
#X obj 249 1524 noteout;
#X obj 431 1520 noteout;
#X obj 79 1427 makenote 1000 1000;
#X obj 207 1428 makenote 1000 1000;
#X obj 345 1424 makenote 1000 1000;
#X obj 79 1270 t f f;
#X obj 79 1401 +;
#N canvas 742 23 450 300 inverse_type 0;
#X obj 87 42 inlet;
#X obj 89 74 sel 0 1 2 3 4 5;
#X msg 25 149 0 \, 4 \, 7;
#X msg 142 149 0 \, 4 \, 8;
#X msg 202 149 0 \, 3 \, 6;
#X msg 263 149 0 \, 5 \, 7;
#X msg 83 149 0 \, 3 \, 7;
#X obj 147 220 outlet;
#X msg 322 149 0 \, 4 \, 10;
#X connect 0 0 1 0;
#X connect 1 0 2 0;
#X connect 1 1 6 0;
#X connect 1 2 3 0;
#X connect 1 3 4 0;
#X connect 1 4 5 0;
#X connect 1 5 8 0;
#X connect 2 0 7 0;
#X connect 3 0 7 0;
#X connect 4 0 7 0;
#X connect 5 0 7 0;
#X connect 6 0 7 0;
#X connect 8 0 7 0;
#X restore 272 1308 pd inverse_type;
#X obj 272 1329 sel 0 1 2 3 4 5 6 7 8 9 10 11;
#X msg 251 1358 0;
#X msg 283 1358 3;
#X msg 313 1358 4;
#X msg 343 1358 5;
#X msg 382 1358 6;
#X msg 411 1358 7;
#X msg 442 1358 8;
#X obj 207 1392 +;
#X obj 345 1396 +;
#X obj 558 1388 sel 0 1 2 3 4 5 6 7 8 9 10;
#X msg 477 1436 0;
#X msg 507 1436 12;
#X msg 537 1436 24;
#X msg 566 1436 36;
#X msg 595 1436 48;
#X msg 624 1436 60;
#X msg 655 1436 72;
#X msg 685 1436 84;
#X msg 715 1436 96;
#X msg 744 1436 108;
#X msg 773 1436 120;
#X obj 89 1453 +;
#X obj 217 1455 +;
#X obj 355 1453 +;
#X obj 558 1218 vradio 15 1 0 11 empty select_octaves empty 0 -8 0
10 -262144 -1 -1 0;
#X text 573 1216 +0;
#X text 573 1231 +12;
#X text 573 1257 +24;
#X text 573 1242 +36;
#X text 573 1276 +48;
#X text 573 1291 +60;
#X text 573 1306 +72;
#X text 573 1321 +84;
#X text 573 1336 +96;
#X text 573 1350 +108;
#X text 573 1366 +120;
#X text 556 1198 OCTAVES:;
#X msg 472 1358 10;
#X obj 522 36 s key;
#X obj 712 35 s mode;
#X obj 522 15 hradio 15 1 0 12 empty select_key empty 0 -8 0 10 -262144
-1 -1 0;
#X obj 712 14 hradio 15 1 0 2 empty select_Mn empty 0 -8 0 10 -262144
-1 -1 0;
#X obj 121 1465 r key;
#X obj 257 1472 r key;
#X obj 370 1474 r key;
#X obj 283 2 r mode;
#X msg 261 218 set major_orden1-\$1 \, bang;
#X obj 97 1489 + 0;
#X obj 233 1496 + 0;
#X obj 355 1496 + 0;
#X obj 239 153 list prepend 0;
#X obj 261 176 route 0 1;
#X obj 261 243 tabdump major_orden1-0;
#X obj 283 23 t f f;
#X obj 29 159 sel 0 1;
#X msg 29 181 0;
#X msg 59 181 12;
#X msg 113 151 stop;
#X obj 52 320 s next_table;
#X obj 212 79 r next_table;
#X obj 14 206 f 0;
#X msg 286 198 set minor_orden1-\$1 \, bang;
#X obj 212 102 t b f;
#X obj 113 192 delay 1000;
#X obj 170 170 r tempo;
#X obj 526 68 tgl 15 0 empty select_start empty 17 7 0 10 -262144 -1
-1 0 1;
#X obj 503 188 s start;
#X obj 545 108 s stop;
#X floatatom 604 60 5 0 0 0 bpm - -;
#X obj 604 129 s tempo;
#X obj 604 108 /;
#X msg 604 84 240000 \$1;
#X obj 113 130 r stop;
#X obj 14 117 r start;
#X obj 578 188 ctlout 123;
#X msg 578 164 123;
#X obj 526 88 sel 1 0;
#X obj 615 1504 pgmout;
#X floatatom 663 1528 5 0 0 0 - - -;
#X obj 52 295 t f f;
#X obj 125 463 t l l;
#X obj 125 495 list length;
#X obj 125 518 sel 4;
#X obj 125 551 list;
#X obj 240 416 bng 15 250 50 0 empty empty empty 17 7 0 10 -262144
-1 -1;
#X text 232 401 clear;
#X text 143 401 ESTRIBILLO:;
#X obj 125 440 list prepend;
#X obj 98 354 sel 0;
#X obj 20 570 PRINT;
#X obj 447 65 r para;
#X obj 421 388 list prepend;
#X obj 421 410 t l l;
#X obj 450 432 list length;
#X floatatom 473 119 5 0 0 0 - - -;
#X obj 29 675 s para;
#X msg 29 646 0;
#X obj 541 142 bng 15 250 50 0 empty empty empty 17 7 0 10 -262144
-1 -1;
#X obj 29 621 del 1;
#X obj 123 581 t b l;
#X floatatom 454 501 5 0 0 0 - - -;
#X obj 421 523 spigot;
#X obj 454 476 > 4;
#X obj 433 548 list split;
#X obj 457 452 t f f;
#X obj 518 516 - 1;
#X obj 663 560 sel 0;
#X obj 455 831 list;
#X obj 455 811 bng 15 250 50 0 empty empty empty 17 7 0 10 -262144
-1 -1;
#X obj 196 339 route 1 0;
#X obj 235 290 tgl 15 0 empty empty empty 17 7 0 10 -262144 -1 -1 0
1;
#X obj 196 312 prepend;
#X obj 235 268 r song_part;
#X obj 284 292 r start;
#X msg 284 316 0;
#X msg 665 602 1;
#X obj 719 619 s song_part;
#X obj 235 831 list;
#X obj 235 811 bng 15 250 50 0 empty empty empty 17 7 0 10 -262144
-1 -1;
#X floatatom 673 132 5 0 0 0 - - -;
#X obj 302 740 bng 15 250 50 0 empty write_song empty 17 7 0 10 -262144
-1 -1;
#X obj 320 1062 prepend add2;
#X obj 320 1123 textfile;
#X msg 541 601 0 0 1 0 1 1 2;
#X obj 541 623 drip 0;
#X obj 541 644 sel 0 1 2;
#X msg 675 760 12;
#X msg 445 1064 write ./cancion.txt cr;
#X msg 253 1063 clear;
#X obj 645 665 r mode;
#X obj 645 737 sel 0 1;
#X msg 645 759 0;
#X floatatom 628 697 5 0 0 0 - - -;
#N canvas 0 23 1280 717 tosymbol 0;
#X obj 71 -73 inlet;
#X obj 521 581 outlet;
#X obj 71 -19 sel 0 1 2 3 4 5 6 7 8 9 10 11 12 13 14 15 16 17 18 19
20 21 22 23 24 25 26 27 28 29 30 31 32 33 34 35 36 37 38 39 40 41 42
43 44 45 46 47 48 49 50 51 52 53 54 55 56 57 58 59 60 61 62 63 64 65
66 67 68 69 70 71;
#X msg 71 92 C;
#X msg 161 92 Db;
#X msg 251 92 D;
#X msg 341 92 Eb;
#X msg 431 92 E;
#X msg 521 92 F;
#X msg 611 92 Gb;
#X msg 701 92 G;
#X msg 791 92 Ab;
#X msg 881 92 A;
#X msg 971 92 Bb;
#X msg 1061 92 B;
#X msg 71 152 Cmin;
#X msg 161 152 Dbmin;
#X msg 251 152 Dmin;
#X msg 341 152 Ebmin;
#X msg 431 152 Emin;
#X msg 521 152 Fmin;
#X msg 611 152 Gbmin;
#X msg 701 152 Gmin;
#X msg 791 152 Abmin;
#X msg 881 152 Amin;
#X msg 972 152 Bbmin;
#X msg 1101 152 Bmin;
#X msg 71 210 Caug;
#X msg 161 210 Dbaug;
#X msg 251 210 Daug;
#X msg 341 210 Ebaug;
#X msg 431 210 Eaug;
#X msg 521 210 Faug;
#X msg 611 210 Gbaug;
#X msg 701 210 Gaug;
#X msg 791 210 Abaug;
#X msg 881 210 Aaug;
#X msg 971 210 Bbaug;
#X msg 1061 210 Baug;
#X msg 71 272 Cdim;
#X msg 161 272 Dbdim;
#X msg 251 272 Ddim;
#X msg 341 272 Ebdim;
#X msg 431 272 Edim;
#X msg 521 272 Fdim;
#X msg 611 272 Gbdim;
#X msg 701 272 Gdim;
#X msg 791 271 Abdim;
#X msg 881 272 Adim;
#X msg 971 272 Bbdim;
#X msg 1061 272 Bdim;
#X msg 71 332 Csus4;
#X msg 161 332 Dbsus4;
#X msg 251 332 Dsus4;
#X msg 341 332 Ebsus4;
#X msg 431 332 Esus4;
#X msg 521 332 Fsus4;
#X msg 611 332 Gbsus4;
#X msg 701 332 Gsus4;
#X msg 791 332 Absus4;
#X msg 881 332 Asus4;
#X msg 971 332 Bbsus4;
#X msg 1061 332 Bsus4;
#X msg 71 392 C7;
#X msg 161 392 Db7;
#X msg 251 392 D7;
#X msg 341 392 Eb7;
#X msg 431 392 E7;
#X msg 521 392 F7;
#X msg 611 392 Gb7;
#X msg 701 392 G7;
#X msg 791 392 Ab7;
#X msg 881 392 A7;
#X msg 971 392 Bb7;
#X msg 1061 392 B7;
#X obj 71 -47 drip;
#X connect 0 0 75 0;
#X connect 2 0 3 0;
#X connect 2 1 4 0;
#X connect 2 2 5 0;
#X connect 2 3 6 0;
#X connect 2 4 7 0;
#X connect 2 5 8 0;
#X connect 2 6 9 0;
#X connect 2 7 10 0;
#X connect 2 8 11 0;
#X connect 2 9 12 0;
#X connect 2 10 13 0;
#X connect 2 11 14 0;
#X connect 2 12 15 0;
#X connect 2 13 16 0;
#X connect 2 14 17 0;
#X connect 2 15 18 0;
#X connect 2 16 19 0;
#X connect 2 17 20 0;
#X connect 2 18 21 0;
#X connect 2 19 22 0;
#X connect 2 20 23 0;
#X connect 2 21 24 0;
#X connect 2 22 25 0;
#X connect 2 23 26 0;
#X connect 2 24 27 0;
#X connect 2 25 28 0;
#X connect 2 26 29 0;
#X connect 2 27 30 0;
#X connect 2 28 31 0;
#X connect 2 29 32 0;
#X connect 2 30 33 0;
#X connect 2 31 34 0;
#X connect 2 32 35 0;
#X connect 2 33 36 0;
#X connect 2 34 37 0;
#X connect 2 35 38 0;
#X connect 2 36 39 0;
#X connect 2 37 40 0;
#X connect 2 38 41 0;
#X connect 2 39 42 0;
#X connect 2 40 43 0;
#X connect 2 41 44 0;
#X connect 2 42 45 0;
#X connect 2 43 46 0;
#X connect 2 44 47 0;
#X connect 2 45 48 0;
#X connect 2 46 49 0;
#X connect 2 47 50 0;
#X connect 2 48 51 0;
#X connect 2 49 52 0;
#X connect 2 50 53 0;
#X connect 2 51 54 0;
#X connect 2 52 55 0;
#X connect 2 53 56 0;
#X connect 2 54 57 0;
#X connect 2 55 58 0;
#X connect 2 56 59 0;
#X connect 2 57 60 0;
#X connect 2 58 61 0;
#X connect 2 59 62 0;
#X connect 2 60 63 0;
#X connect 2 61 64 0;
#X connect 2 62 65 0;
#X connect 2 63 66 0;
#X connect 2 64 67 0;
#X connect 2 65 68 0;
#X connect 2 66 69 0;
#X connect 2 67 70 0;
#X connect 2 68 71 0;
#X connect 2 69 72 0;
#X connect 2 70 73 0;
#X connect 2 71 74 0;
#X connect 3 0 1 0;
#X connect 4 0 1 0;
#X connect 5 0 1 0;
#X connect 6 0 1 0;
#X connect 7 0 1 0;
#X connect 8 0 1 0;
#X connect 9 0 1 0;
#X connect 10 0 1 0;
#X connect 11 0 1 0;
#X connect 12 0 1 0;
#X connect 13 0 1 0;
#X connect 14 0 1 0;
#X connect 15 0 1 0;
#X connect 16 0 1 0;
#X connect 17 0 1 0;
#X connect 18 0 1 0;
#X connect 19 0 1 0;
#X connect 20 0 1 0;
#X connect 21 0 1 0;
#X connect 22 0 1 0;
#X connect 23 0 1 0;
#X connect 24 0 1 0;
#X connect 25 0 1 0;
#X connect 26 0 1 0;
#X connect 27 0 1 0;
#X connect 28 0 1 0;
#X connect 29 0 1 0;
#X connect 30 0 1 0;
#X connect 31 0 1 0;
#X connect 32 0 1 0;
#X connect 33 0 1 0;
#X connect 34 0 1 0;
#X connect 35 0 1 0;
#X connect 36 0 1 0;
#X connect 37 0 1 0;
#X connect 38 0 1 0;
#X connect 39 0 1 0;
#X connect 40 0 1 0;
#X connect 41 0 1 0;
#X connect 42 0 1 0;
#X connect 43 0 1 0;
#X connect 44 0 1 0;
#X connect 45 0 1 0;
#X connect 46 0 1 0;
#X connect 47 0 1 0;
#X connect 48 0 1 0;
#X connect 49 0 1 0;
#X connect 50 0 1 0;
#X connect 51 0 1 0;
#X connect 52 0 1 0;
#X connect 53 0 1 0;
#X connect 54 0 1 0;
#X connect 55 0 1 0;
#X connect 56 0 1 0;
#X connect 57 0 1 0;
#X connect 58 0 1 0;
#X connect 59 0 1 0;
#X connect 60 0 1 0;
#X connect 61 0 1 0;
#X connect 62 0 1 0;
#X connect 63 0 1 0;
#X connect 64 0 1 0;
#X connect 65 0 1 0;
#X connect 66 0 1 0;
#X connect 67 0 1 0;
#X connect 68 0 1 0;
#X connect 69 0 1 0;
#X connect 70 0 1 0;
#X connect 71 0 1 0;
#X connect 72 0 1 0;
#X connect 73 0 1 0;
#X connect 74 0 1 0;
#X connect 75 0 2 0;
#X restore 269 967 pd tosymbol;
#X obj 235 874 list-math +;
#X obj 334 868 r key;
#X obj 455 863 list-math +;
#X obj 554 857 r key;
#X obj 441 888 PRINT;
#X msg 1100 1070 B;
#N canvas 0 23 1280 717 tosymbol 0;
#X obj 71 -73 inlet;
#X obj 521 581 outlet;
#X obj 71 -19 sel 0 1 2 3 4 5 6 7 8 9 10 11 12 13 14 15 16 17 18 19
20 21 22 23 24 25 26 27 28 29 30 31 32 33 34 35 36 37 38 39 40 41 42
43 44 45 46 47 48 49 50 51 52 53 54 55 56 57 58 59 60 61 62 63 64 65
66 67 68 69 70 71;
#X msg 71 92 C;
#X msg 161 92 Db;
#X msg 251 92 D;
#X msg 341 92 Eb;
#X msg 431 92 E;
#X msg 521 92 F;
#X msg 611 92 Gb;
#X msg 701 92 G;
#X msg 791 92 Ab;
#X msg 881 92 A;
#X msg 971 92 Bb;
#X msg 1061 92 B;
#X msg 71 152 Cmin;
#X msg 161 152 Dbmin;
#X msg 251 152 Dmin;
#X msg 341 152 Ebmin;
#X msg 431 152 Emin;
#X msg 521 152 Fmin;
#X msg 611 152 Gbmin;
#X msg 701 152 Gmin;
#X msg 791 152 Abmin;
#X msg 881 152 Amin;
#X msg 972 152 Bbmin;
#X msg 1101 152 Bmin;
#X msg 71 210 Caug;
#X msg 161 210 Dbaug;
#X msg 251 210 Daug;
#X msg 341 210 Ebaug;
#X msg 431 210 Eaug;
#X msg 521 210 Faug;
#X msg 611 210 Gbaug;
#X msg 701 210 Gaug;
#X msg 791 210 Abaug;
#X msg 881 210 Aaug;
#X msg 971 210 Bbaug;
#X msg 1061 210 Baug;
#X msg 71 272 Cdim;
#X msg 161 272 Dbdim;
#X msg 251 272 Ddim;
#X msg 341 272 Ebdim;
#X msg 431 272 Edim;
#X msg 521 272 Fdim;
#X msg 611 272 Gbdim;
#X msg 701 272 Gdim;
#X msg 791 271 Abdim;
#X msg 881 272 Adim;
#X msg 971 272 Bbdim;
#X msg 1061 272 Bdim;
#X msg 71 332 Csus4;
#X msg 161 332 Dbsus4;
#X msg 251 332 Dsus4;
#X msg 341 332 Ebsus4;
#X msg 431 332 Esus4;
#X msg 521 332 Fsus4;
#X msg 611 332 Gbsus4;
#X msg 701 332 Gsus4;
#X msg 791 332 Absus4;
#X msg 881 332 Asus4;
#X msg 971 332 Bbsus4;
#X msg 1061 332 Bsus4;
#X msg 71 392 C7;
#X msg 161 392 Db7;
#X msg 251 392 D7;
#X msg 341 392 Eb7;
#X msg 431 392 E7;
#X msg 521 392 F7;
#X msg 611 392 Gb7;
#X msg 701 392 G7;
#X msg 791 392 Ab7;
#X msg 881 392 A7;
#X msg 971 392 Bb7;
#X msg 1061 392 B7;
#X obj 71 -47 drip;
#X connect 0 0 75 0;
#X connect 2 0 3 0;
#X connect 2 1 4 0;
#X connect 2 2 5 0;
#X connect 2 3 6 0;
#X connect 2 4 7 0;
#X connect 2 5 8 0;
#X connect 2 6 9 0;
#X connect 2 7 10 0;
#X connect 2 8 11 0;
#X connect 2 9 12 0;
#X connect 2 10 13 0;
#X connect 2 11 14 0;
#X connect 2 12 15 0;
#X connect 2 13 16 0;
#X connect 2 14 17 0;
#X connect 2 15 18 0;
#X connect 2 16 19 0;
#X connect 2 17 20 0;
#X connect 2 18 21 0;
#X connect 2 19 22 0;
#X connect 2 20 23 0;
#X connect 2 21 24 0;
#X connect 2 22 25 0;
#X connect 2 23 26 0;
#X connect 2 24 27 0;
#X connect 2 25 28 0;
#X connect 2 26 29 0;
#X connect 2 27 30 0;
#X connect 2 28 31 0;
#X connect 2 29 32 0;
#X connect 2 30 33 0;
#X connect 2 31 34 0;
#X connect 2 32 35 0;
#X connect 2 33 36 0;
#X connect 2 34 37 0;
#X connect 2 35 38 0;
#X connect 2 36 39 0;
#X connect 2 37 40 0;
#X connect 2 38 41 0;
#X connect 2 39 42 0;
#X connect 2 40 43 0;
#X connect 2 41 44 0;
#X connect 2 42 45 0;
#X connect 2 43 46 0;
#X connect 2 44 47 0;
#X connect 2 45 48 0;
#X connect 2 46 49 0;
#X connect 2 47 50 0;
#X connect 2 48 51 0;
#X connect 2 49 52 0;
#X connect 2 50 53 0;
#X connect 2 51 54 0;
#X connect 2 52 55 0;
#X connect 2 53 56 0;
#X connect 2 54 57 0;
#X connect 2 55 58 0;
#X connect 2 56 59 0;
#X connect 2 57 60 0;
#X connect 2 58 61 0;
#X connect 2 59 62 0;
#X connect 2 60 63 0;
#X connect 2 61 64 0;
#X connect 2 62 65 0;
#X connect 2 63 66 0;
#X connect 2 64 67 0;
#X connect 2 65 68 0;
#X connect 2 66 69 0;
#X connect 2 67 70 0;
#X connect 2 68 71 0;
#X connect 2 69 72 0;
#X connect 2 70 73 0;
#X connect 2 71 74 0;
#X connect 3 0 1 0;
#X connect 4 0 1 0;
#X connect 5 0 1 0;
#X connect 6 0 1 0;
#X connect 7 0 1 0;
#X connect 8 0 1 0;
#X connect 9 0 1 0;
#X connect 10 0 1 0;
#X connect 11 0 1 0;
#X connect 12 0 1 0;
#X connect 13 0 1 0;
#X connect 14 0 1 0;
#X connect 15 0 1 0;
#X connect 16 0 1 0;
#X connect 17 0 1 0;
#X connect 18 0 1 0;
#X connect 19 0 1 0;
#X connect 20 0 1 0;
#X connect 21 0 1 0;
#X connect 22 0 1 0;
#X connect 23 0 1 0;
#X connect 24 0 1 0;
#X connect 25 0 1 0;
#X connect 26 0 1 0;
#X connect 27 0 1 0;
#X connect 28 0 1 0;
#X connect 29 0 1 0;
#X connect 30 0 1 0;
#X connect 31 0 1 0;
#X connect 32 0 1 0;
#X connect 33 0 1 0;
#X connect 34 0 1 0;
#X connect 35 0 1 0;
#X connect 36 0 1 0;
#X connect 37 0 1 0;
#X connect 38 0 1 0;
#X connect 39 0 1 0;
#X connect 40 0 1 0;
#X connect 41 0 1 0;
#X connect 42 0 1 0;
#X connect 43 0 1 0;
#X connect 44 0 1 0;
#X connect 45 0 1 0;
#X connect 46 0 1 0;
#X connect 47 0 1 0;
#X connect 48 0 1 0;
#X connect 49 0 1 0;
#X connect 50 0 1 0;
#X connect 51 0 1 0;
#X connect 52 0 1 0;
#X connect 53 0 1 0;
#X connect 54 0 1 0;
#X connect 55 0 1 0;
#X connect 56 0 1 0;
#X connect 57 0 1 0;
#X connect 58 0 1 0;
#X connect 59 0 1 0;
#X connect 60 0 1 0;
#X connect 61 0 1 0;
#X connect 62 0 1 0;
#X connect 63 0 1 0;
#X connect 64 0 1 0;
#X connect 65 0 1 0;
#X connect 66 0 1 0;
#X connect 67 0 1 0;
#X connect 68 0 1 0;
#X connect 69 0 1 0;
#X connect 70 0 1 0;
#X connect 71 0 1 0;
#X connect 72 0 1 0;
#X connect 73 0 1 0;
#X connect 74 0 1 0;
#X connect 75 0 2 0;
#X restore 389 967 pd tosymbol;
#N canvas 0 23 1280 717 tosymbol 0;
#X obj 71 -73 inlet;
#X obj 521 581 outlet;
#X obj 71 -19 sel 0 1 2 3 4 5 6 7 8 9 10 11 12 13 14 15 16 17 18 19
20 21 22 23 24 25 26 27 28 29 30 31 32 33 34 35 36 37 38 39 40 41 42
43 44 45 46 47 48 49 50 51 52 53 54 55 56 57 58 59 60 61 62 63 64 65
66 67 68 69 70 71;
#X msg 71 92 C;
#X msg 161 92 Db;
#X msg 251 92 D;
#X msg 341 92 Eb;
#X msg 431 92 E;
#X msg 521 92 F;
#X msg 611 92 Gb;
#X msg 701 92 G;
#X msg 791 92 Ab;
#X msg 881 92 A;
#X msg 971 92 Bb;
#X msg 1061 92 B;
#X msg 71 152 Cmin;
#X msg 161 152 Dbmin;
#X msg 251 152 Dmin;
#X msg 341 152 Ebmin;
#X msg 431 152 Emin;
#X msg 521 152 Fmin;
#X msg 611 152 Gbmin;
#X msg 701 152 Gmin;
#X msg 791 152 Abmin;
#X msg 881 152 Amin;
#X msg 972 152 Bbmin;
#X msg 1101 152 Bmin;
#X msg 71 210 Caug;
#X msg 161 210 Dbaug;
#X msg 251 210 Daug;
#X msg 341 210 Ebaug;
#X msg 431 210 Eaug;
#X msg 521 210 Faug;
#X msg 611 210 Gbaug;
#X msg 701 210 Gaug;
#X msg 791 210 Abaug;
#X msg 881 210 Aaug;
#X msg 971 210 Bbaug;
#X msg 1061 210 Baug;
#X msg 71 272 Cdim;
#X msg 161 272 Dbdim;
#X msg 251 272 Ddim;
#X msg 341 272 Ebdim;
#X msg 431 272 Edim;
#X msg 521 272 Fdim;
#X msg 611 272 Gbdim;
#X msg 701 272 Gdim;
#X msg 791 271 Abdim;
#X msg 881 272 Adim;
#X msg 971 272 Bbdim;
#X msg 1061 272 Bdim;
#X msg 71 332 Csus4;
#X msg 161 332 Dbsus4;
#X msg 251 332 Dsus4;
#X msg 341 332 Ebsus4;
#X msg 431 332 Esus4;
#X msg 521 332 Fsus4;
#X msg 611 332 Gbsus4;
#X msg 701 332 Gsus4;
#X msg 791 332 Absus4;
#X msg 881 332 Asus4;
#X msg 971 332 Bbsus4;
#X msg 1061 332 Bsus4;
#X msg 71 392 C7;
#X msg 161 392 Db7;
#X msg 251 392 D7;
#X msg 341 392 Eb7;
#X msg 431 392 E7;
#X msg 521 392 F7;
#X msg 611 392 Gb7;
#X msg 701 392 G7;
#X msg 791 392 Ab7;
#X msg 881 392 A7;
#X msg 971 392 Bb7;
#X msg 1061 392 B7;
#X obj 71 -47 drip;
#X connect 0 0 75 0;
#X connect 2 0 3 0;
#X connect 2 1 4 0;
#X connect 2 2 5 0;
#X connect 2 3 6 0;
#X connect 2 4 7 0;
#X connect 2 5 8 0;
#X connect 2 6 9 0;
#X connect 2 7 10 0;
#X connect 2 8 11 0;
#X connect 2 9 12 0;
#X connect 2 10 13 0;
#X connect 2 11 14 0;
#X connect 2 12 15 0;
#X connect 2 13 16 0;
#X connect 2 14 17 0;
#X connect 2 15 18 0;
#X connect 2 16 19 0;
#X connect 2 17 20 0;
#X connect 2 18 21 0;
#X connect 2 19 22 0;
#X connect 2 20 23 0;
#X connect 2 21 24 0;
#X connect 2 22 25 0;
#X connect 2 23 26 0;
#X connect 2 24 27 0;
#X connect 2 25 28 0;
#X connect 2 26 29 0;
#X connect 2 27 30 0;
#X connect 2 28 31 0;
#X connect 2 29 32 0;
#X connect 2 30 33 0;
#X connect 2 31 34 0;
#X connect 2 32 35 0;
#X connect 2 33 36 0;
#X connect 2 34 37 0;
#X connect 2 35 38 0;
#X connect 2 36 39 0;
#X connect 2 37 40 0;
#X connect 2 38 41 0;
#X connect 2 39 42 0;
#X connect 2 40 43 0;
#X connect 2 41 44 0;
#X connect 2 42 45 0;
#X connect 2 43 46 0;
#X connect 2 44 47 0;
#X connect 2 45 48 0;
#X connect 2 46 49 0;
#X connect 2 47 50 0;
#X connect 2 48 51 0;
#X connect 2 49 52 0;
#X connect 2 50 53 0;
#X connect 2 51 54 0;
#X connect 2 52 55 0;
#X connect 2 53 56 0;
#X connect 2 54 57 0;
#X connect 2 55 58 0;
#X connect 2 56 59 0;
#X connect 2 57 60 0;
#X connect 2 58 61 0;
#X connect 2 59 62 0;
#X connect 2 60 63 0;
#X connect 2 61 64 0;
#X connect 2 62 65 0;
#X connect 2 63 66 0;
#X connect 2 64 67 0;
#X connect 2 65 68 0;
#X connect 2 66 69 0;
#X connect 2 67 70 0;
#X connect 2 68 71 0;
#X connect 2 69 72 0;
#X connect 2 70 73 0;
#X connect 2 71 74 0;
#X connect 3 0 1 0;
#X connect 4 0 1 0;
#X connect 5 0 1 0;
#X connect 6 0 1 0;
#X connect 7 0 1 0;
#X connect 8 0 1 0;
#X connect 9 0 1 0;
#X connect 10 0 1 0;
#X connect 11 0 1 0;
#X connect 12 0 1 0;
#X connect 13 0 1 0;
#X connect 14 0 1 0;
#X connect 15 0 1 0;
#X connect 16 0 1 0;
#X connect 17 0 1 0;
#X connect 18 0 1 0;
#X connect 19 0 1 0;
#X connect 20 0 1 0;
#X connect 21 0 1 0;
#X connect 22 0 1 0;
#X connect 23 0 1 0;
#X connect 24 0 1 0;
#X connect 25 0 1 0;
#X connect 26 0 1 0;
#X connect 27 0 1 0;
#X connect 28 0 1 0;
#X connect 29 0 1 0;
#X connect 30 0 1 0;
#X connect 31 0 1 0;
#X connect 32 0 1 0;
#X connect 33 0 1 0;
#X connect 34 0 1 0;
#X connect 35 0 1 0;
#X connect 36 0 1 0;
#X connect 37 0 1 0;
#X connect 38 0 1 0;
#X connect 39 0 1 0;
#X connect 40 0 1 0;
#X connect 41 0 1 0;
#X connect 42 0 1 0;
#X connect 43 0 1 0;
#X connect 44 0 1 0;
#X connect 45 0 1 0;
#X connect 46 0 1 0;
#X connect 47 0 1 0;
#X connect 48 0 1 0;
#X connect 49 0 1 0;
#X connect 50 0 1 0;
#X connect 51 0 1 0;
#X connect 52 0 1 0;
#X connect 53 0 1 0;
#X connect 54 0 1 0;
#X connect 55 0 1 0;
#X connect 56 0 1 0;
#X connect 57 0 1 0;
#X connect 58 0 1 0;
#X connect 59 0 1 0;
#X connect 60 0 1 0;
#X connect 61 0 1 0;
#X connect 62 0 1 0;
#X connect 63 0 1 0;
#X connect 64 0 1 0;
#X connect 65 0 1 0;
#X connect 66 0 1 0;
#X connect 67 0 1 0;
#X connect 68 0 1 0;
#X connect 69 0 1 0;
#X connect 70 0 1 0;
#X connect 71 0 1 0;
#X connect 72 0 1 0;
#X connect 73 0 1 0;
#X connect 74 0 1 0;
#X connect 75 0 2 0;
#X restore 499 967 pd tosymbol;
#X obj 274 912 PRINT;
#X obj 528 580 bng 15 250 50 0 empty write_song empty 17 7 0 10 -262144
-1 -1;
#X obj 220 1041 bng 15 250 50 0 empty write_song2 empty 17 7 0 10 -262144
-1 -1;
#X obj 401 1004 bng 15 250 50 0 empty write_song2 empty 17 7 0 10 -262144
-1 -1;
#X obj 401 1021 delay 500;
#X obj 401 1044 bng 15 250 50 0 empty empty empty 17 7 0 10 -262144
-1 -1;
#X obj 546 1015 bng 15 250 50 0 empty write_song3 empty 17 7 0 10 -262144
-1 -1;
#X obj 79 1234 drip;
#X obj 135 1214 r tempo;
#X obj 80 1053 prepend;
#X obj 111 1141 spigot;
#X obj 169 1101 tgl 15 0 empty select_play empty 17 7 0 10 -262144
-1 -1 0 1;
#X connect 0 0 92 0;
#X connect 2 0 10 0;
#X connect 2 0 20 0;
#X connect 2 0 21 0;
#X connect 3 0 11 0;
#X connect 6 0 34 0;
#X connect 6 1 1 1;
#X connect 7 0 35 0;
#X connect 7 1 4 1;
#X connect 8 0 36 0;
#X connect 8 1 5 1;
#X connect 9 0 2 0;
#X connect 9 1 3 0;
#X connect 10 0 6 0;
#X connect 11 0 12 0;
#X connect 12 0 13 0;
#X connect 12 3 14 0;
#X connect 12 4 15 0;
#X connect 12 5 16 0;
#X connect 12 6 17 0;
#X connect 12 7 18 0;
#X connect 12 8 19 0;
#X connect 12 10 50 0;
#X connect 13 0 10 1;
#X connect 14 0 20 1;
#X connect 15 0 20 1;
#X connect 16 0 20 1;
#X connect 17 0 21 1;
#X connect 18 0 21 1;
#X connect 19 0 21 1;
#X connect 20 0 7 0;
#X connect 21 0 8 0;
#X connect 22 0 23 0;
#X connect 22 1 24 0;
#X connect 22 2 25 0;
#X connect 22 3 26 0;
#X connect 22 4 27 0;
#X connect 22 5 28 0;
#X connect 22 6 29 0;
#X connect 22 7 30 0;
#X connect 22 8 31 0;
#X connect 22 9 32 0;
#X connect 22 10 33 0;
#X connect 23 0 34 1;
#X connect 23 0 35 1;
#X connect 23 0 36 1;
#X connect 24 0 34 1;
#X connect 24 0 35 1;
#X connect 24 0 36 1;
#X connect 25 0 34 1;
#X connect 25 0 35 1;
#X connect 25 0 36 1;
#X connect 26 0 34 1;
#X connect 26 0 35 1;
#X connect 26 0 36 1;
#X connect 27 0 34 1;
#X connect 27 0 35 1;
#X connect 27 0 36 1;
#X connect 28 0 34 1;
#X connect 28 0 35 1;
#X connect 28 0 36 1;
#X connect 29 0 34 1;
#X connect 29 0 35 1;
#X connect 29 0 36 1;
#X connect 30 0 34 1;
#X connect 30 0 35 1;
#X connect 30 0 36 1;
#X connect 31 0 34 1;
#X connect 31 0 35 1;
#X connect 31 0 36 1;
#X connect 32 0 34 1;
#X connect 32 0 35 1;
#X connect 32 0 36 1;
#X connect 33 0 34 1;
#X connect 33 0 35 1;
#X connect 33 0 36 1;
#X connect 34 0 60 0;
#X connect 35 0 61 0;
#X connect 36 0 62 0;
#X connect 37 0 22 0;
#X connect 50 0 21 1;
#X connect 53 0 51 0;
#X connect 54 0 52 0;
#X connect 55 0 60 1;
#X connect 56 0 61 1;
#X connect 57 0 62 1;
#X connect 58 0 66 0;
#X connect 59 0 65 0;
#X connect 60 0 1 0;
#X connect 61 0 4 0;
#X connect 62 0 5 0;
#X connect 63 0 64 0;
#X connect 64 0 59 0;
#X connect 64 1 74 0;
#X connect 65 0 0 1;
#X connect 66 0 67 0;
#X connect 66 1 63 1;
#X connect 67 0 68 0;
#X connect 67 1 69 0;
#X connect 68 0 73 1;
#X connect 69 0 73 1;
#X connect 70 0 76 0;
#X connect 72 0 75 0;
#X connect 73 0 92 0;
#X connect 74 0 65 0;
#X connect 75 0 76 0;
#X connect 75 1 63 0;
#X connect 76 0 0 0;
#X connect 77 0 76 1;
#X connect 78 0 89 0;
#X connect 78 0 107 0;
#X connect 81 0 84 0;
#X connect 83 0 82 0;
#X connect 83 0 132 0;
#X connect 84 0 83 0;
#X connect 85 0 70 0;
#X connect 86 0 73 0;
#X connect 88 0 87 0;
#X connect 89 0 79 0;
#X connect 89 1 80 0;
#X connect 89 1 88 0;
#X connect 89 1 110 0;
#X connect 91 0 90 0;
#X connect 92 0 71 0;
#X connect 92 1 124 0;
#X connect 93 0 94 0;
#X connect 93 1 96 1;
#X connect 93 1 100 1;
#X connect 94 0 95 0;
#X connect 95 0 100 1;
#X connect 95 0 96 0;
#X connect 96 0 102 0;
#X connect 96 0 112 0;
#X connect 97 0 100 1;
#X connect 100 0 93 0;
#X connect 101 1 100 0;
#X connect 103 0 78 0;
#X connect 104 0 105 0;
#X connect 105 0 114 0;
#X connect 105 1 106 0;
#X connect 105 1 104 1;
#X connect 106 0 117 0;
#X connect 109 0 108 0;
#X connect 111 0 109 0;
#X connect 112 0 111 0;
#X connect 112 1 120 1;
#X connect 113 0 114 1;
#X connect 114 0 116 0;
#X connect 115 0 113 0;
#X connect 116 0 130 1;
#X connect 116 1 119 0;
#X connect 117 0 115 0;
#X connect 117 1 118 0;
#X connect 118 0 116 1;
#X connect 119 0 128 0;
#X connect 120 0 149 0;
#X connect 121 0 120 0;
#X connect 122 0 101 0;
#X connect 122 1 104 0;
#X connect 123 0 124 1;
#X connect 124 0 122 0;
#X connect 125 0 123 0;
#X connect 126 0 127 0;
#X connect 126 0 104 1;
#X connect 127 0 123 0;
#X connect 128 0 129 0;
#X connect 130 0 147 0;
#X connect 131 0 130 0;
#X connect 133 0 121 0;
#X connect 133 0 131 0;
#X connect 134 0 135 0;
#X connect 136 0 137 0;
#X connect 137 0 138 0;
#X connect 138 0 130 0;
#X connect 138 1 120 0;
#X connect 138 2 145 0;
#X connect 139 0 154 0;
#X connect 139 0 164 0;
#X connect 140 0 135 0;
#X connect 141 0 135 0;
#X connect 142 0 145 0;
#X connect 143 0 144 0;
#X connect 143 1 139 0;
#X connect 144 0 154 0;
#X connect 144 0 164 0;
#X connect 145 0 143 0;
#X connect 146 0 134 0;
#X connect 147 0 146 0;
#X connect 147 0 155 0;
#X connect 147 0 164 0;
#X connect 148 0 147 1;
#X connect 149 0 151 0;
#X connect 149 0 153 0;
#X connect 149 0 164 0;
#X connect 150 0 149 1;
#X connect 153 0 134 0;
#X connect 154 0 134 0;
#X connect 156 0 136 0;
#X connect 157 0 141 0;
#X connect 158 0 159 0;
#X connect 159 0 160 0;
#X connect 160 0 140 0;
#X connect 161 0 140 0;
#X connect 162 0 9 0;
#X connect 163 0 162 1;
#X connect 164 0 165 0;
#X connect 165 0 162 0;
#X connect 166 0 165 1;
