#N canvas 1415 103 450 300 10;
#X obj 101 60 r fill_table major;
#X obj 101 85 route \$1;
#X obj 101 110 t f f;
#X obj 101 156 + 1;
#X obj 101 134 tabread major_orden1-\$1;
#X obj 101 180 tabwrite major_orden1-\$1;
#X obj 7 10 table major_orden1-\$1 72;
#X connect 0 0 1 0;
#X connect 1 0 2 0;
#X connect 2 0 4 0;
#X connect 2 1 5 1;
#X connect 3 0 5 0;
#X connect 4 0 3 0;
